<svg
  xmlns="http://www.w3.org/2000/svg"
  width="128"
  height="128"
  viewBox="0 0 128 128"
  fill="none"
>
  <defs>
    <linearGradient id="coldmicMarkGradient" x1="20" y1="20" x2="108" y2="108" gradientUnits="userSpaceOnUse">
      <stop offset="0" stop-color="#22D3EE" />
      <stop offset="1" stop-color="#0891B2" />
    </linearGradient>
  </defs>
  <rect x="12" y="12" width="104" height="104" rx="28" fill="url(#coldmicMarkGradient)" />
  <g
    transform="translate(36 36) scale(2.3333333333)"
    stroke="#FFFFFF"
    stroke-width="2.1"
    stroke-linecap="round"
    stroke-linejoin="round"
  >
    <path d="M12 19v3" />
    <path d="M15 9.34V5a3 3 0 0 0-5.68-1.33" />
    <path d="M16.95 16.95A7 7 0 0 1 5 12v-2" />
    <path d="M18.89 13.23A7 7 0 0 0 19 12v-2" />
    <path d="m2 2 20 20" />
    <path d="M9 9v3a3 3 0 0 0 5.12 2.12" />
  </g>
</svg>
